<svg xmlns="http://www.w3.org/2000/svg" version="1.1" xmlns:xlink="http://www.w3.org/1999/xlink" width="2000" height="327" viewBox="0 0 2000 327"><svg xml:space="preserve" width="2000" height="327" data-version="2" data-id="lg_no3Fc6W1o6G9P2cmdT" viewBox="0 0 582 327" x="0" y="0"><rect width="100%" height="100%" fill="transparent"></rect><path fill="#ff5858" d="M54.4 267.639H41.1l5.67-32.55h-9.59l2.03-11.2h32.55l-2.03 11.2h-9.66zm-17.43-43.75-.56 3.15-29.61-3.15zm-1.19 6.72-.49 3.15-29.68-3.15zm8.47 6.72-.56 3.15-29.68-3.15zm-1.19 6.72-.56 3.15-29.68-3.15zm-1.19 6.72-.56 3.15-29.68-3.15zm-1.19 6.72-.56 3.15-29.68-3.15zm-1.19 6.79-.56 3.15-29.68-3.15z"></path><path fill="#ff5858" d="M96.68 267.639h-13.3l7.7-43.75h21q4.55 0 7.18 1.4 2.62 1.4 3.71 3.81 1.08 2.42 1.08 5.5 0 1.89-.38 4.48-.39 2.59-1.37 5.28-.98 2.7-2.76 5.01-1.79 2.31-4.52 3.71l4.62 14.56h-14.63l-3.22-13.02h-2.87zm-7.77-43.75-.56 3.15-29.61-3.15zm-1.19 6.72-.56 3.15-29.61-3.15zm14.63 4.48-1.54 8.75h3.08q2.03 0 3.43-.46 1.4-.45 1.75-2.48.35-1.75.46-2.66.1-.91.1-.98 0-1.54-1.29-1.86-1.3-.31-3.33-.31zm-15.82 2.24-.56 3.15-29.61-3.15zm-1.19 6.72-.56 3.15-29.61-3.15zm-1.12 6.72-.56 3.15-29.68-3.15zm-1.19 6.72-.56 3.15-29.68-3.15zm-1.19 6.79-.56 3.15-29.68-3.15z"></path><path fill="#ff5858" d="M168.64 267.639h-29.61l7.7-43.75h29.26l-3.64 11.2H158l-.98 5.88h13.3l-1.82 10.15h-13.3l-.91 5.32h16.31zm-24.08-43.75-.56 3.15-29.61-3.15zm-1.19 6.72-.49 3.15-29.68-3.15zm-1.12 6.72-.56 3.15-29.68-3.15zm-1.19 6.72-.56 3.15-29.68-3.15zm-1.19 6.72-.56 3.15-29.68-3.15zm-1.19 6.72-.56 3.15-29.68-3.15zm-1.19 6.79-.56 3.15-29.68-3.15z"></path><path fill="#ff5858" d="M203.15 267.639h-13.3l7.7-43.75h12.53l7.14 15.54q.21.49.21 1.4 0 .49-.03 1.01-.04.53-.11.95h.56l3.36-18.9h13.3l-7.7 43.75h-12.53l-7.14-15.54q-.07-.28-.17-.67-.11-.38-.11-.87 0-.42.04-.91.03-.49.1-.91h-.56zm-7.77-43.75-.56 3.15-29.61-3.15zm-1.19 6.72-.49 3.15-29.68-3.15zm-1.12 6.72-.56 3.15-29.68-3.15zm-1.19 6.72-.56 3.15-29.68-3.15zm-1.19 6.72-.56 3.15-29.68-3.15zm-1.19 6.72-.56 3.15-29.68-3.15zm-1.19 6.79-.56 3.15-29.68-3.15z"></path><path fill="#ff5858" d="M268.04 267.639h-18.62l7.7-43.75h18.62q9.17 0 12.92 3.25 3.74 3.26 3.74 10.26 0 3.64-.84 8.4-1.33 7.56-3.88 12.39-2.56 4.83-7.21 7.14-4.66 2.31-12.43 2.31m-13.09-43.75-.56 3.15-29.61-3.15zm-1.19 6.72-.49 3.15-29.68-3.15zm14.63 4.48-3.71 21.35h5.53q2.31 0 3.82-.56 1.5-.56 1.99-3.15l2.45-13.93q.07-.35.07-.6v-.52q0-1.82-1.29-2.21-1.3-.38-3.33-.38zm-15.75 2.24-.56 3.15-29.68-3.15zm-1.19 6.72-.56 3.15-29.68-3.15zm-1.19 6.72-.56 3.15-29.68-3.15zm-1.19 6.72-.56 3.15-29.68-3.15zm-1.19 6.79-.56 3.15-29.68-3.15z"></path><path fill="#ff5858" d="M325.79 267.639h-13.3l2.03-11.9-6.3-31.85h14.7l.91 15.4h.49l6.44-15.4h14.7l-17.64 31.85zm-19.67-43.75.63 3.15-29.61-3.15zm1.26 6.72.63 3.15-29.61-3.15zm1.33 6.72.63 3.15-29.61-3.15zm1.33 6.72.63 3.15-29.68-3.15zm1.33 6.72.63 3.15-29.68-3.15zm.63 6.72-.49 3.15-29.61-3.15zm-1.12 6.79-.56 3.15-29.61-3.15z"></path><path fill="#ff5858" d="M392.01 267.639h-23.94l7.7-43.75h21.56q5.11 0 7.35 1.75 2.24 1.75 2.24 5.39 0 5.6-2.48 8.92-2.49 3.33-5.57 4.1l-.07.42q3.43.63 4.87 2.87 1.43 2.24 1.43 5.46 0 3.92-1.43 7.31-1.44 3.4-4.34 5.46-2.91 2.07-7.32 2.07m-18.41-43.75-.56 3.15-29.61-3.15zm-1.19 6.72-.49 3.15-29.68-3.15zm14.98 2.87-1.19 6.51h4.13q1.82 0 2.52-1.4t.7-3.15q0-.91-.42-1.44-.42-.52-1.54-.52zm-16.1 3.85-.56 3.15-29.68-3.15zm-1.19 6.72-.56 3.15-29.68-3.15zm14.28 6.16-1.26 7.14h5.18q1.89 0 2.73-1.47.84-1.47.84-3.43 0-.98-.49-1.61-.49-.63-1.75-.63zm-15.47.56-.56 3.15-29.68-3.15zm-1.19 6.72-.56 3.15-29.68-3.15zm-1.19 6.79-.56 3.15-29.68-3.15z"></path><path fill="#ff5858" d="M435.41 267.639h-14l18.41-43.75h20.58l3.08 43.75h-14.07l-.28-6.93h-10.99zm2.1-43.75-1.26 3.01-28.56-3.01zm-2.87 6.72-1.26 3.01-28.56-3.01zm-2.8 6.72-1.26 3.08-28.63-3.08zm15.54 0-4.9 12.25h5.6v-12.25zm-18.34 6.72-1.33 3.08-28.63-3.08zm-2.87 6.72-1.26 3.08-28.7-3.08zm-2.8 6.72-1.33 3.08-28.7-3.08zm-2.87 6.79-1.33 3.08-28.7-3.08z"></path><path fill="#ff5858" d="M498.41 268.689q-9.1 0-12.77-3.54-3.68-3.53-3.68-10.46 0-1.96.28-4.17.28-2.2.7-4.72.98-5.67 2.63-9.98 1.64-4.3 4.44-7.21 2.8-2.9 7.18-4.34 4.37-1.43 10.81-1.43 1.75 0 4.2.28t4.76.66q2.31.39 3.57.88l-3.85 10.71q-2.52-.49-5.25-.74-2.73-.24-4.55-.24-3.92 0-5.95.63-2.03.63-2.38 2.87l-3.43 19.81h4.41q2.03 0 3.36-.46 1.33-.45 1.68-2.48l.35-1.89h-3.36l1.89-10.71h16.03l-4.13 23.38q-4.41 1.61-8.92 2.38-4.52.77-8.02.77m-9.17-42.49-21.42-2.31h24.57q-.84.49-1.61 1.05-.77.56-1.54 1.26m-4.9 7.21-26.18-2.8h27.58q-.35.7-.7 1.36-.35.67-.7 1.44m-1.47 3.92-.84 2.87-27.16-2.87zm-2.17 9.66-27.51-2.94h28l-.21 1.4q-.07.42-.14.8-.07.39-.14.74m-.7 6.72-27.58-2.94h27.79q-.21 1.54-.21 2.94m.56 6.72-27.23-2.94h26.74q.14.77.25 1.5.1.74.24 1.44m3.71 6.44-24.22-2.59h22.12q.91 1.61 2.1 2.59"></path><path fill="#ff5858" d="M551.89 268.689q-4.13 0-8.08-.46-3.96-.45-7.67-1.36l3.92-11.55q2.66.7 5.74 1.15 3.08.46 5.81.46 2.24 0 3.92-.11 1.68-.1 3.22-.31l.56-3.5-5.81-.56q-6.86-.7-9.52-3.12-2.66-2.41-2.66-6.61 0-1.89.42-4.2 1.12-5.95 3.26-9.38 2.13-3.43 6.12-4.87 3.99-1.43 10.57-1.43 3.85 0 7.56.42 3.71.42 7.14 1.33l-3.64 11.2q-2.73-.49-5.18-.77-2.45-.28-5.46-.28-1.61 0-2.73.07-1.12.07-2.73.28l-.56 3.43 4.69.49q5.04.49 7.91 1.92 2.87 1.44 4.06 3.57 1.19 2.14 1.19 4.94 0 .84-.1 1.71-.11.88-.25 1.86-.98 5.67-3.15 8.89-2.17 3.22-5.11 4.65-2.94 1.44-6.4 1.79-3.47.35-7.04.35m-8.05-41.93-27.02-2.87h30.1q-.91.56-1.64 1.29-.74.74-1.44 1.58m-2.17 3.85-1.05 3.08-29.05-3.08zm-2.38 9.87-29.68-3.15h30.17q-.07.21-.1.42-.04.21-.04.42-.07.49-.17 1.05-.11.56-.18 1.26m.56 6.72-29.61-3.15h29.05q.07.91.18 1.64.1.74.38 1.51m9.24 6.72-37.03-3.15h30.17q2.31 2.24 6.86 3.15m-12.04 3.57-1.05 3.08-25.13-3.08zm-2.24 6.79-1.05 3.08-24.08-3.08zm-341.05 35.72v18.48h-2.43v-18.48zm5.93 0v1.99h-14.28v-1.99zm4.44 6.9v11.58h-2.37v-13.73h2.31zm4.28-2.23v2.17q-.31-.06-.57-.08-.26-.02-.59-.02-1.08 0-1.82.44-.74.45-1.15 1.23-.4.78-.51 1.78l-.67.38q0-1.66.45-3.04.44-1.38 1.39-2.21.94-.83 2.43-.83.24 0 .57.06.34.06.47.12m7.56 14.07q-1.92 0-3.34-.86-1.41-.86-2.19-2.36-.78-1.49-.78-3.42v-.55q0-2.23.85-3.82.86-1.58 2.24-2.41 1.38-.83 2.91-.83 1.98 0 3.23.88 1.25.89 1.84 2.4.59 1.52.59 3.44v1.05h-10.25v-1.9h7.88v-.18q-.05-.92-.37-1.79-.32-.86-1.01-1.43-.7-.56-1.91-.56-1.06 0-1.88.6-.82.6-1.29 1.75-.46 1.15-.46 2.8v.55q0 1.3.48 2.38.49 1.07 1.4 1.71.91.64 2.18.64 1.25 0 2.11-.51.86-.5 1.51-1.36l1.44 1.12q-.66 1.02-1.9 1.84-1.24.82-3.28.82m10.15-11.06v10.8h-2.38v-13.73h2.25zm-.56 3.4-.99-.04q.02-1.88.72-3.36t1.95-2.33q1.25-.86 2.91-.86 1.36 0 2.35.5.98.5 1.52 1.6.54 1.09.54 2.89v9h-2.38v-9.03q0-1.07-.31-1.73-.31-.66-.92-.96-.61-.3-1.5-.3-.87 0-1.58.37-.71.37-1.23 1.01-.52.65-.8 1.48t-.28 1.76m17.07 7.66q-1.62 0-2.84-.91-1.21-.91-1.89-2.48-.68-1.58-.68-3.58v-.27q0-2.1.68-3.68t1.89-2.45q1.22-.88 2.86-.88 1.73 0 2.88.79 1.16.8 1.81 2.26.66 1.46.85 3.48v1.23q-.19 1.99-.84 3.44-.65 1.46-1.81 2.25-1.16.8-2.91.8m.58-1.99q1.17 0 1.92-.49.76-.5 1.21-1.31.46-.81.72-1.76v-3.09q-.16-.7-.44-1.35-.29-.65-.74-1.17-.45-.51-1.1-.82-.66-.3-1.55-.3-1.28 0-2.08.68-.81.69-1.18 1.84-.38 1.15-.38 2.52v.27q0 1.37.38 2.5.37 1.13 1.17 1.81.8.67 2.07.67m5.61 1.73h-2.17l-.2-2.66v-16.84h2.37zm7.19-1.42 3.82-12.31h2.53l-5.51 15.85q-.19.51-.5 1.1-.31.59-.79 1.12-.48.54-1.16.87-.69.34-1.63.34-.19 0-.45-.04-.27-.04-.51-.08-.24-.05-.37-.08v-1.9q.1.02.32.04.23.03.32.03 1.19 0 1.86-.5.67-.49 1.09-1.76zm-2.77-12.31 3.55 10.67.61 2.48-1.71.85-5.04-14zm12.41 13.87q-.71 0-1.08-.39-.38-.4-.38-.98 0-.6.38-1.01.37-.41 1.08-.41.73 0 1.1.41.38.41.38 1.01 0 .58-.38.98-.37.39-1.1.39m17.42.12q-1.28 0-2.52-.36t-2.25-1.07q-1.01-.71-1.61-1.75-.6-1.05-.6-2.44h2.46q0 .96.37 1.64.37.69 1 1.13.63.45 1.45.66.81.2 1.7.2 1.28 0 2.16-.36.89-.36 1.35-1.02.46-.66.46-1.56 0-.88-.37-1.49-.36-.61-1.32-1.1-.95-.5-2.7-1-1.37-.4-2.47-.9t-1.88-1.15q-.79-.64-1.21-1.48-.42-.84-.42-1.92 0-1.45.78-2.58.78-1.14 2.19-1.79 1.41-.66 3.3-.66 2.1 0 3.56.8 1.46.79 2.22 2.07.76 1.27.76 2.72H287q0-1.04-.43-1.85-.44-.82-1.34-1.28-.9-.46-2.29-.46-1.29 0-2.14.39-.84.39-1.25 1.07-.4.67-.4 1.53 0 .78.44 1.38.44.6 1.4 1.09.95.48 2.46.91 2.09.58 3.44 1.36 1.35.77 1.99 1.83.64 1.05.64 2.48 0 1.5-.8 2.62t-2.25 1.73q-1.45.61-3.4.61m14.67-13.99v1.79h-7.44v-1.79zm-4.94-3.34h2.37v13.67q0 .71.22 1.07.21.35.56.47.34.11.73.11.3 0 .62-.05t.48-.09v1.89q-.28.09-.73.17-.44.09-1.08.09-.86 0-1.58-.35-.73-.34-1.16-1.15-.43-.8-.43-2.17zm11.21 15.65 3.83-12.31h2.52l-5.51 15.85q-.19.51-.5 1.1-.31.59-.79 1.12-.47.54-1.16.87-.68.34-1.62.34-.19 0-.46-.04t-.51-.08q-.24-.05-.37-.08v-1.9q.11.02.33.04.22.03.31.03 1.19 0 1.86-.5.68-.49 1.1-1.76zm-2.76-12.31 3.54 10.67.61 2.48-1.7.85-5.04-14zm13.47-5.77v19.5h-2.37v-19.5zm4.89.78q.69 0 1.05.39.36.39.36.95 0 .55-.36.93-.36.39-1.05.39-.68 0-1.03-.39-.35-.38-.35-.93 0-.56.35-.95.35-.39 1.03-.39m1.2 4.99v13.73h-2.36v-13.73zm8.59 13.99q-1.82 0-3.08-.65-1.25-.65-1.9-1.67-.65-1.02-.65-2.17h2.38q.06.97.56 1.53.5.57 1.23.81.73.24 1.46.24.96 0 1.61-.26.66-.26.99-.71.34-.45.34-1.02 0-.51-.22-.95-.22-.44-.9-.8-.67-.36-2.03-.64-1.52-.32-2.63-.81-1.11-.48-1.72-1.25-.6-.76-.6-1.89 0-1.09.63-2 .63-.9 1.78-1.46 1.15-.55 2.68-.55 1.65 0 2.83.58 1.17.58 1.79 1.55.62.97.62 2.15h-2.37q0-.85-.74-1.61-.74-.76-2.13-.76-.96 0-1.57.29-.6.3-.87.77-.28.46-.28.97 0 .5.26.88.25.37.93.67.68.29 1.98.58 1.68.38 2.78.91 1.09.54 1.62 1.31.53.78.53 1.89 0 1.2-.66 2.12-.66.92-1.85 1.43-1.19.52-2.8.52m10.42-19.76v19.5h-2.37v-19.5zm-.56 12.1-.99-.04q.03-1.88.73-3.36t1.95-2.33q1.25-.86 2.91-.86 1.36 0 2.34.5.99.5 1.53 1.6.54 1.09.54 2.89v9h-2.38v-9.03q0-1.07-.31-1.73-.31-.66-.92-.96-.61-.3-1.5-.3-.87 0-1.58.37-.72.37-1.24 1.01-.52.65-.8 1.48t-.28 1.76m13.71 7.54q-.71 0-1.09-.39-.37-.4-.37-.98 0-.6.37-1.01.38-.41 1.09-.41.72 0 1.1.41.37.41.37 1.01 0 .58-.37.98-.38.39-1.1.39m12.41-18.62 4.79 9.29 4.8-9.29h2.79l-6.36 11.58v6.9h-2.48v-6.9l-6.36-11.58zm13.46 11.77v-.3q0-1.99.77-3.56.76-1.58 2.15-2.5 1.4-.92 3.32-.92 1.94 0 3.35.92 1.41.92 2.16 2.5.76 1.57.76 3.56v.3q0 1.98-.76 3.56-.75 1.58-2.15 2.49-1.41.92-3.34.92t-3.33-.92q-1.4-.91-2.16-2.49-.77-1.58-.77-3.56m2.38-.3v.3q0 1.35.43 2.51.43 1.15 1.29 1.85.86.7 2.16.7 1.3 0 2.16-.7.85-.7 1.28-1.85.44-1.16.44-2.51v-.3q0-1.35-.44-2.51-.43-1.16-1.29-1.86-.86-.7-2.17-.7-1.28 0-2.15.7-.86.7-1.29 1.86-.42 1.16-.42 2.51m21.17 3.84v-10.56h2.37v13.73h-2.26zm.44-2.9.99-.02q0 1.83-.52 3.26-.52 1.43-1.7 2.26-1.18.83-3.16.83-2.02 0-3.26-1.2-1.25-1.19-1.25-3.93v-8.86h2.38v8.88q0 1.25.36 1.93.36.67.94.93t1.21.26q1.5 0 2.37-.57.88-.58 1.26-1.57.38-.99.38-2.2m6.68 6.21q-.71 0-1.08-.39-.38-.4-.38-.98 0-.6.38-1.01.37-.41 1.08-.41.73 0 1.1.41.38.41.38 1.01 0 .58-.38.98-.37.39-1.1.39M315.48 61.515l-.18-30.101c0-15.71-12.735-28.445-28.444-28.445S258.41 15.704 258.41 31.414v30.1h-25.024V181.2h109.8V61.515zm-50.696-30.101c.48-11.853 10.226-21.217 22.09-21.217s21.61 9.364 22.09 21.217v30.1h-44.018zM137.27 161.989h-12.78v-26.46h11.59v3.53h-7.59v7.31h6.12v3.6h-6.12v8.46h8.78zm10.15.36q-1.51 0-2.98-.38-1.48-.38-2.63-.93-1.15-.56-1.73-1.14l1.91-3.42q.39.33 1.24.85t1.96.92q1.12.39 2.23.39 1.84 0 3.08-.86 1.24-.87 1.24-2.52 0-1.37-.72-2.27-.72-.9-1.89-1.58-1.17-.69-2.52-1.32-1.35-.63-2.57-1.42-1.4-.94-2.45-2.48-1.04-1.55-1.04-4 0-2.41 1.1-3.96 1.09-1.55 2.91-2.32 1.82-.78 3.98-.78 1.73 0 2.95.36 1.23.36 2.05.87.83.5 1.3.9l-1.91 3.27q-.61-.64-1.83-1.2-1.23-.56-2.74-.56-1.76 0-2.81.81-1.04.81-1.04 2.39 0 1.41.93 2.4.94.99 2.4 1.8t3 1.64q1.55.82 2.74 1.94.97.86 1.66 2.16.68 1.3.68 2.92 0 2.44-1.13 4.14-1.14 1.69-3.05 2.53-1.9.85-4.32.85m21.86-.36h-4v-22.93h-6.77v-3.53h17.61v3.53h-6.84zm11.23.36q-1.08 0-1.84-.74-.75-.74-.75-1.82 0-1.11.73-1.85.74-.74 1.86-.74 1.15 0 1.87.74.72.74.72 1.85 0 1.08-.74 1.82t-1.85.74m234.95-1.27h-16l7.9-9.89q.64-.83 1.46-2.03.82-1.2 1.44-2.49.62-1.3.62-2.42 0-1.76-.94-2.72-.94-.96-2.83-.96-1.31 0-2.21.58-.9.57-1.46 1.34-.56.77-.88 1.38l-2.97-1.6q.61-1.16 1.58-2.32.98-1.17 2.45-1.97 1.47-.8 3.58-.8 2.44 0 4.07.86 1.63.87 2.45 2.37.81 1.5.81 3.42 0 2.05-1.01 4.2-1 2.14-2.83 4.38l-4.35 5.5h9.12zm12.77.48q-2.34 0-3.97-.96-1.63-.96-2.66-2.64-1.02-1.68-1.48-3.9-.47-2.23-.47-4.72 0-2.59.45-4.8t1.44-3.86q.99-1.65 2.64-2.57 1.65-.93 4.05-.93 3.2 0 5.05 1.57 1.86 1.56 2.68 4.3.81 2.74.81 6.29 0 3.42-.85 6.21-.84 2.78-2.72 4.4-1.87 1.61-4.97 1.61m0-3.26q1.44 0 2.35-.77.91-.77 1.41-2.08.49-1.31.69-2.9.19-1.58.19-3.21 0-1.79-.19-3.39-.2-1.6-.69-2.85-.5-1.25-1.41-1.97-.91-.72-2.35-.72t-2.37.72q-.93.72-1.42 1.97-.5 1.25-.69 2.85-.19 1.6-.19 3.39 0 1.63.19 3.21.19 1.59.69 2.88.49 1.3 1.42 2.08.93.79 2.37.79m28.61 2.78h-16l7.9-9.89q.64-.83 1.46-2.03.81-1.2 1.44-2.49.62-1.3.62-2.42 0-1.76-.94-2.72-.95-.96-2.84-.96-1.31 0-2.2.58-.9.57-1.46 1.34-.56.77-.88 1.38l-2.98-1.6q.61-1.16 1.59-2.32.97-1.17 2.45-1.97 1.47-.8 3.58-.8 2.43 0 4.06.86 1.64.87 2.45 2.37.82 1.5.82 3.42 0 2.05-1.01 4.2-1.01 2.14-2.83 4.38l-4.35 5.5h9.12zm18.33 0h-3.74v-5.89h-10.75l6.75-18.43 3.33 1.25-5.09 13.82h5.76l.19-5.34h3.55v5.34h3.27v3.36h-3.27z"></path></svg></svg>